<?xml version="1.0" standalone="no"?>
<svg xmlns:xlink="http://www.w3.org/1999/xlink" id="wave" style="transform:rotate(0deg); transition: 0.3s" viewBox="0 0 1440 130" version="1.1" xmlns="http://www.w3.org/2000/svg"><defs><linearGradient id="sw-gradient-0" x1="0" x2="0" y1="1" y2="0"><stop stop-color="rgba(103, 198, 255, 1)" offset="0%"/><stop stop-color="rgba(35, 39, 232, 1)" offset="100%"/></linearGradient></defs><path style="transform:translate(0, 0px); opacity:1" fill="url(#sw-gradient-0)" d="M0,117L14.1,99.7C28.2,82,56,48,85,32.5C112.9,17,141,22,169,30.3C197.6,39,226,52,254,56.3C282.4,61,311,56,339,52C367.1,48,395,43,424,39C451.8,35,480,30,508,28.2C536.5,26,565,26,593,21.7C621.2,17,649,9,678,13C705.9,17,734,35,762,49.8C790.6,65,819,78,847,86.7C875.3,95,904,100,932,86.7C960,74,988,43,1016,45.5C1044.7,48,1073,82,1101,82.3C1129.4,82,1158,48,1186,39C1214.1,30,1242,48,1271,47.7C1298.8,48,1327,30,1355,39C1383.5,48,1412,82,1440,80.2C1468.2,78,1496,39,1525,34.7C1552.9,30,1581,61,1609,71.5C1637.6,82,1666,74,1694,73.7C1722.4,74,1751,82,1779,86.7C1807.1,91,1835,91,1864,93.2C1891.8,95,1920,100,1948,99.7C1976.5,100,2005,95,2019,93.2L2032.9,91L2032.9,130L2018.8,130C2004.7,130,1976,130,1948,130C1920,130,1892,130,1864,130C1835.3,130,1807,130,1779,130C1750.6,130,1722,130,1694,130C1665.9,130,1638,130,1609,130C1581.2,130,1553,130,1525,130C1496.5,130,1468,130,1440,130C1411.8,130,1384,130,1355,130C1327.1,130,1299,130,1271,130C1242.4,130,1214,130,1186,130C1157.6,130,1129,130,1101,130C1072.9,130,1045,130,1016,130C988.2,130,960,130,932,130C903.5,130,875,130,847,130C818.8,130,791,130,762,130C734.1,130,706,130,678,130C649.4,130,621,130,593,130C564.7,130,536,130,508,130C480,130,452,130,424,130C395.3,130,367,130,339,130C310.6,130,282,130,254,130C225.9,130,198,130,169,130C141.2,130,113,130,85,130C56.5,130,28,130,14,130L0,130Z"/></svg>